<?xml version="1.0" encoding="UTF-8"?>
<svg version="1.1" xmlns="http://www.w3.org/2000/svg" width="462" height="366">
<path d="M0 0 C14.69593759 15.05816141 22.81785617 34.71510777 23.46875 55.7734375 C22.83311593 76.33806927 15.53787019 94.57961136 1.21875 109.2734375 C0.39375 110.1603125 -0.43125 111.0471875 -1.28125 111.9609375 C-13.71809766 123.46502159 -29.570923 131.55006123 -46.78125 132.2734375 C-47.87824219 132.325 -48.97523438 132.3765625 -50.10546875 132.4296875 C-70.47426161 132.93210377 -88.38609185 126.56027157 -103.78125 113.2734375 C-104.65394531 112.52449219 -105.52664062 111.77554688 -106.42578125 111.00390625 C-120.47100198 97.99427783 -128.57016323 79.30480095 -129.78125 60.2734375 C-130.21107504 38.52429073 -123.10214075 17.89126412 -108.40625 1.6484375 C-107.54 0.8646875 -106.67375 0.0809375 -105.78125 -0.7265625 C-105.20503906 -1.31824219 -104.62882812 -1.90992188 -104.03515625 -2.51953125 C-75.18765611 -30.71264576 -28.1063303 -25.89247551 0 0 Z " fill="#839C70" transform="translate(338.78125,175.7265625)"/>
<path d="M0 0 C1.59959497 1.50372019 3.18420857 3.0236122 4.75 4.5625 C5.37648437 5.17609375 6.00296875 5.7896875 6.6484375 6.421875 C15.375653 15.66245612 20.88000784 27.28614612 23.75 39.5625 C24.10384766 41.06490234 24.10384766 41.06490234 24.46484375 42.59765625 C28.1988979 61.90247214 24.59455046 82.10429989 13.75 98.5625 C9.02131678 105.13940036 3.70786212 111.08082389 -2.25 116.5625 C-2.96414062 117.23152344 -3.67828125 117.90054688 -4.4140625 118.58984375 C-18.5389258 130.89595375 -37.80524933 135.75611634 -56.25 134.5625 C-72.6720189 132.77785388 -88.54268297 127.77235687 -100.25 115.5625 C-101.11238281 114.758125 -101.97476563 113.95375 -102.86328125 113.125 C-118.70078266 98.08968751 -126.87193154 78.74075915 -127.625 57 C-126.89348347 36.04046116 -118.67677322 16.74857707 -104.25 1.5625 C-74.57003369 -25.39778812 -30.35216617 -26.52396503 0 0 Z " fill="#C97453" transform="translate(227.25,64.4375)"/>
<path d="M0 0 C0.66 0.33 1.32 0.66 2 1 C1.525625 1.61875 1.05125 2.2375 0.5625 2.875 C-1.02417441 4.90705546 -1.02417441 4.90705546 -2 7 C-2.66 7 -3.32 7 -4 7 C-4.12375 7.5775 -4.2475 8.155 -4.375 8.75 C-5.02758152 11.09929345 -5.69371429 12.93744362 -7 15 C-9 16 -9 16 -11 17 C-12.09166275 18.93330603 -12.09166275 18.93330603 -13 21 C-14.5 22.75 -14.5 22.75 -16 24 C-16.66 24 -17.32 24 -18 24 C-18 24.99 -18 25.98 -18 27 C-18.66 27 -19.32 27 -20 27 C-18.60173735 23.17900503 -16.82450795 19.9193224 -14.625 16.5 C-14.03976563 15.5821875 -13.45453125 14.664375 -12.8515625 13.71875 C-10.01909498 9.55968377 -7.13518478 5.90024895 -3.25 2.6875 C-2.63640625 2.17574219 -2.0228125 1.66398438 -1.390625 1.13671875 C-0.93171875 0.76160156 -0.4728125 0.38648438 0 0 Z " fill="#A3B394" transform="translate(238,170)"/>
<path d="M0 0 C0.33 0 0.66 0 1 0 C2.70767192 18.85362106 0.79050074 34.95719245 -8 52 C-8.66 50.68 -9.32 49.36 -10 48 C-9.34 47.01 -8.68 46.02 -8 45 C-7.34 45 -6.68 45 -6 45 C-6 43.35 -6 41.7 -6 40 C-5.34 40 -4.68 40 -4 40 C-3.95101562 39.39414063 -3.90203125 38.78828125 -3.8515625 38.1640625 C-3.47103858 33.89957035 -2.99690056 29.7911516 -2 25.625 C-0.19317304 17.26505436 -0.30510285 8.5205553 0 0 Z " fill="#DFB5A6" transform="translate(251,108)"/>
<path d="M0 0 C2.31 0 4.62 0 7 0 C-0.12586185 4.75057457 -9.49957803 6.65700052 -18 7 C-18.83789062 7.03996094 -19.67578125 7.07992187 -20.5390625 7.12109375 C-27.84216444 7.29998818 -34.82209227 6.27810122 -42 5 C-42 4.67 -42 4.34 -42 4 C-40.83766846 4.02356567 -40.83766846 4.02356567 -39.65185547 4.04760742 C-19.59065423 4.68716023 -19.59065423 4.68716023 0 1 C0 0.67 0 0.34 0 0 Z " fill="#DEB7A9" transform="translate(200,192)"/>
<path d="M0 0 C0 0.66 0 1.32 0 2 C-0.66 2 -1.32 2 -2 2 C-2 2.66 -2 3.32 -2 4 C-3.42578125 5.25390625 -3.42578125 5.25390625 -5.3125 6.5625 C-5.92738281 6.99691406 -6.54226562 7.43132813 -7.17578125 7.87890625 C-9 9 -9 9 -12 10 C-12.33 10.99 -12.66 11.98 -13 13 C-15.4375 14.75 -15.4375 14.75 -18 16 C-18.66 15.67 -19.32 15.34 -20 15 C-16.60233598 11.50950363 -13.0913635 8.32258206 -9.3125 5.25 C-8.35988281 4.47140625 -7.40726563 3.6928125 -6.42578125 2.890625 C-2.71694215 0 -2.71694215 0 0 0 Z " fill="#D4A38D" transform="translate(140,55)"/>
<path d="M0 0 C0.33 0 0.66 0 1 0 C1.02945031 3.31248078 1.04694801 6.62492711 1.0625 9.9375 C1.07087891 10.86369141 1.07925781 11.78988281 1.08789062 12.74414062 C1.10837786 18.58300303 0.75429787 24.20913053 0 30 C-0.33 30 -0.66 30 -1 30 C-1.99959542 19.59880439 -1.95285575 10.32915438 0 0 Z " fill="#B7C1A9" transform="translate(211,214)"/>
<path d="M0 0 C0.33 0 0.66 0 1 0 C1.40762948 6.46383888 0.2807412 10.70231565 -2.5 16.5 C-3.00080078 17.59054688 -3.00080078 17.59054688 -3.51171875 18.703125 C-4.32771295 20.47499813 -5.16197592 22.23843917 -6 24 C-6.66 22.68 -7.32 21.36 -8 20 C-7.01 18.515 -7.01 18.515 -6 17 C-5.34 17 -4.68 17 -4 17 C-4 15.35 -4 13.7 -4 12 C-3.34 12 -2.68 12 -2 12 C-1.93941406 11.30132812 -1.87882813 10.60265625 -1.81640625 9.8828125 C-1.73261719 8.97273437 -1.64882812 8.06265625 -1.5625 7.125 C-1.48128906 6.22007812 -1.40007812 5.31515625 -1.31640625 4.3828125 C-1 2 -1 2 0 0 Z " fill="#D3A792" transform="translate(249,136)"/>
<path d="M0 0 C0.33 0.99 0.66 1.98 1 3 C-0.07421875 4.796875 -0.07421875 4.796875 -1.6875 6.75 C-4.54730967 10.34976042 -6.81211581 13.96082918 -9 18 C-9.66 18 -10.32 18 -11 18 C-9.68493198 13.35250831 -7.83857485 10.0362944 -4.9375 6.1875 C-4.22464844 5.23230469 -3.51179688 4.27710937 -2.77734375 3.29296875 C-1 1 -1 1 0 0 Z " fill="#D29E88" transform="translate(119,71)"/>
<path d="M0 0 C1.32 0 2.64 0 4 0 C4 0.66 4 1.32 4 2 C4.94875 2.226875 5.8975 2.45375 6.875 2.6875 C10 4 10 4 11.375 6.625 C11.58125 7.40875 11.7875 8.1925 12 9 C11.34 9.66 10.68 10.32 10 11 C8.33035479 9.35718838 6.6643536 7.71067239 5 6.0625 C4.071875 5.14597656 3.14375 4.22945313 2.1875 3.28515625 C0 1 0 1 0 0 Z M10 2 C10.66 2.66 11.32 3.32 12 4 C11.34 4 10.68 4 10 4 C10 3.34 10 2.68 10 2 Z " fill="#96A887" transform="translate(226,279)"/>
<path d="M0 0 C4.8245905 4.25699162 8.05863995 9.28911194 11 15 C11 15.66 11 16.32 11 17 C10.34 17 9.68 17 9 17 C7.18655766 14.96894458 6.11058729 13.48381941 5.5 10.8125 C5.335 10.214375 5.17 9.61625 5 9 C4.01 8.67 3.02 8.34 2 8 C0.04457812 5.01540871 0 3.73585209 0 0 Z " fill="#D4A491" transform="translate(234,72)"/>
<path d="M0 0 C1.98 0 3.96 0 6 0 C2.49391962 4.11583349 -2.04628837 6.90567018 -7 9 C-7.66 8.67 -8.32 8.34 -9 8 C-7.1875 6 -7.1875 6 -5 4 C-4.01 4 -3.02 4 -2 4 C-2 3.34 -2 2.68 -2 2 C-1.34 2 -0.68 2 0 2 C0 1.34 0 0.68 0 0 Z " fill="#B2BFA7" transform="translate(327,291)"/>
<path d="M0 0 C0.33 0.66 0.66 1.32 1 2 C-0.14453125 4.56640625 -0.14453125 4.56640625 -1.8125 7.5625 C-2.35519531 8.55378906 -2.89789063 9.54507812 -3.45703125 10.56640625 C-5 13 -5 13 -7 14 C-9 11 -9 11 -9 8 C-6.66785852 6.79371992 -4.50357861 5.8345262 -2 5 C-2 3.68 -2 2.36 -2 1 C-1.34 0.67 -0.68 0.34 0 0 Z " fill="#9FAF90" transform="translate(354,262)"/>
<path d="M0 0 C4.06498881 1.37184347 6.67396561 3.22068459 9.8125 6.125 C10.99779297 7.21167969 10.99779297 7.21167969 12.20703125 8.3203125 C12.79871094 8.87460938 13.39039063 9.42890625 14 10 C13.34 10.66 12.68 11.32 12 12 C11.46375 11.236875 10.9275 10.47375 10.375 9.6875 C8.14904609 6.83098369 8.14904609 6.83098369 4.875 5.4375 C1.82366144 3.91183072 1.08647538 3.15077861 0 0 Z " fill="#D49E89" transform="translate(216,57)"/>
<path d="M0 0 C0.144375 0.598125 0.28875 1.19625 0.4375 1.8125 C0.8872439 3.56150404 1.42892341 5.28677023 2 7 C0.68 7.33 -0.64 7.66 -2 8 C-1.938125 8.7425 -1.87625 9.485 -1.8125 10.25 C-2.03094296 13.45383006 -2.90250005 14.64031256 -5 17 C-4.46246904 10.81839396 -2.45417612 5.673142 0 0 Z " fill="#B1BFA4" transform="translate(217,197)"/>
<path d="M0 0 C0.33 0 0.66 0 1 0 C0.60763388 6.96788102 0.12487711 11.87512289 -5 17 C-3.83348574 11.07136283 -2.24480642 5.61201606 0 0 Z " fill="#DBAC99" transform="translate(107,89)"/>
<path d="M0 0 C0.5775 0.45375 1.155 0.9075 1.75 1.375 C3.89638627 3.05002042 3.89638627 3.05002042 6.1875 3.9375 C8 5 8 5 8.75 7.125 C8.87375 8.053125 8.87375 8.053125 9 9 C4.32894208 7.44298069 0.91294315 4.91552627 -3 2 C-2.01 1.34 -1.02 0.68 0 0 Z " fill="#ACB99F" transform="translate(240,289)"/>
<path d="M0 0 C-1.6188996 1.03048037 -3.24532489 2.04914678 -4.875 3.0625 C-5.77992188 3.63097656 -6.68484375 4.19945312 -7.6171875 4.78515625 C-8.40351563 5.18605469 -9.18984375 5.58695313 -10 6 C-10.66 5.67 -11.32 5.34 -12 5 C-11.67 4.34 -11.34 3.68 -11 3 C-10.01 3 -9.02 3 -8 3 C-8 2.34 -8 1.68 -8 1 C-3.375 -1.125 -3.375 -1.125 0 0 Z " fill="#D7A998" transform="translate(219,186)"/>
<path d="M0 0 C3.3 0.33 6.6 0.66 10 1 C9.67 1.66 9.34 2.32 9 3 C9.66 3.33 10.32 3.66 11 4 C11 4.66 11 5.32 11 6 C6.95743617 4.77782954 3.50711041 3.37245704 0 1 C0 0.67 0 0.34 0 0 Z " fill="#D8AA94" transform="translate(137,187)"/>
<path d="M0 0 C2.67901932 2.31881505 3.66204403 4.31814468 4.6875 7.6875 C4.93886719 8.49574219 5.19023437 9.30398437 5.44921875 10.13671875 C5.63097656 10.75160156 5.81273437 11.36648437 6 12 C5.01 12 4.02 12 3 12 C0 3.2 0 3.2 0 0 Z " fill="#AFBCA3" transform="translate(351,194)"/>
<path d="M0 0 C2.8125 0.0625 2.8125 0.0625 6 1 C7.4926041 3.27444434 8.14242011 5.37961699 9 8 C5.27762318 6.75920773 3.64250671 4.85112566 1 2 C0.67 1.34 0.34 0.68 0 0 Z " fill="#DEB6A1" transform="translate(126,178)"/>
<path d="M0 0 C4.21912747 0.4794463 6.79663178 1.16625119 10 4 C6.86650268 5.04449911 6.01031744 4.93423645 3 4 C3 3.34 3 2.68 3 2 C2.01 2 1.02 2 0 2 C0 1.34 0 0.68 0 0 Z " fill="#D5A38A" transform="translate(201,50)"/>
<path d="M0 0 C0.33 0.66 0.66 1.32 1 2 C2.32 1.67 3.64 1.34 5 1 C5.33 1.99 5.66 2.98 6 4 C6.99 4.33 7.98 4.66 9 5 C8.01 5.495 8.01 5.495 7 6 C4.8359375 5.22265625 4.8359375 5.22265625 2.375 4.0625 C1.55773437 3.68222656 0.74046875 3.30195313 -0.1015625 2.91015625 C-0.72804687 2.60980469 -1.35453125 2.30945313 -2 2 C-1.34 1.34 -0.68 0.68 0 0 Z " fill="#B8C4AE" transform="translate(251,297)"/>
<path d="M0 0 C0.33 0.99 0.66 1.98 1 3 C-3.75 7.875 -3.75 7.875 -6 9 C-4.47291037 5.56404834 -2.40072955 2.88087546 0 0 Z " fill="#D8B19D" transform="translate(119,71)"/>
<path d="M0 0 C3.08089673 2.77280706 4.68775452 5.06326356 6 9 C5.01 9 4.02 9 3 9 C1.76078698 6.02588876 0.69941596 3.14737182 0 0 Z " fill="#B6C1AA" transform="translate(342,180)"/>
<path d="M0 0 C1.32 0 2.64 0 4 0 C4 0.66 4 1.32 4 2 C4.99 2.33 5.98 2.66 7 3 C6.67 4.32 6.34 5.64 6 7 C4.02 4.69 2.04 2.38 0 0 Z " fill="#A8B79D" transform="translate(226,279)"/>
<path d="M0 0 C0.33 0.66 0.66 1.32 1 2 C0.22265625 3.9453125 0.22265625 3.9453125 -0.9375 6.125 C-1.31777344 6.84945313 -1.69804687 7.57390625 -2.08984375 8.3203125 C-2.39019531 8.87460937 -2.69054687 9.42890625 -3 10 C-3.66 8.68 -4.32 7.36 -5 6 C-4.01 5.67 -3.02 5.34 -2 5 C-2 3.68 -2 2.36 -2 1 C-1.34 0.67 -0.68 0.34 0 0 Z " fill="#BDC7B2" transform="translate(354,262)"/>
<path d="M0 0 C1.258125 0.226875 2.51625 0.45375 3.8125 0.6875 C0.17826791 3.01340854 -2.95838331 2.85015833 -7.1875 2.6875 C-5.15110924 -0.49436057 -3.4972064 -0.45804119 0 0 Z " fill="#BFCBB3" transform="translate(300.1875,304.3125)"/>
<path d="M0 0 C3 2 3 2 5 5 C4.67 5.66 4.34 6.32 4 7 C4.66 7.33 5.32 7.66 6 8 C5.01 8 4.02 8 3 8 C0 2.25 0 2.25 0 0 Z " fill="#DCB295" transform="translate(107,152)"/>
<path d="M0 0 C0 0.66 0 1.32 0 2 C-2.3125 3.6875 -2.3125 3.6875 -5 5 C-5.99 4.67 -6.98 4.34 -8 4 C-2.25 0 -2.25 0 0 0 Z " fill="#B2C0A8" transform="translate(248,165)"/>
</svg>
